{"title":"The.Lego.Movie.2014.WEBRip.480p.x264.AAC-VYTO [P2PDL]","uid":10219166,"size":372638407,"categoryP":"video","categoryS":"movies","magnet":"?xt=urn:btih:fc2f245272abbda64e23cd69c16d34489e65b67d&amp;dn=The.Lego.Movie.2014.WEBRip.480p.x264.AAC-VYTO+%5BP2PDL%5D&amp;tr=udp%3A%2F%2Ftracker.openbittorrent.com%3A80&amp;tr=udp%3A%2F%2Fopen.demonii.com%3A1337&amp;tr=udp%3A%2F%2Ftracker.coppersurfer.tk%3A6969&amp;tr=udp%3A%2F%2Fexodus.desync.com%3A6969","seeders":1,"leechers":0,"uploader":"ValidusVyto","files":-1,"time":1401005971,"description":"____    ____ ____    ____ .___________.  ______   \n     /   /      /   / |           | /  __    \n    /   /      /   /  `---|  |----`|  |  |  | \n        /     _    _/       |  |     |  |  |  | \n       /        |  |         |  |     |  `--'  | \n    __/         |__|         |__|      ______/  \n                                                  \nPresenting Small Encodes with quality for years!\n                                                                                                   \n                                                                                                   \n\nThe.Lego.Movie.2014.WEBRip.480p.x264.AAC-VYTO\n\n\nGenre: Animation | Adventure | Comedy &lt;a href=&quot;\nhttp://www.imdb.com/title/tt1490017/&quot; rel=&quot;nofollow&quot; target=&quot;_NEW&quot;&gt;\nhttp://www.imdb.com/title/tt1490017/&lt;/a&gt;\n\n\nGeneral\nFormat                         : MPEG-4\nFile size                      : 351 MiB\nDuration                       : 1h 40mn\nOverall bit rate               : 488 Kbps\n\nVideo\nFormat                         : AVC\nBit rate                       : 445 Kbps\nWidth                          : 720 pixels\nHeight                         : 304 pixels\nDisplay aspect ratio           : 2.35:1\nFrame rate mode                : Constant\nFrame rate                     : 23.976 fps\nBit depth                      : 8 bits\nStream size                    : 320 MiB (91%)\n\nAudio\nFormat                         : AAC\nBit rate                       : 39.9 Kbps\nChannel(s)                     : 2 channels\nChannel positions              : Front: L R\nSampling rate                  : 48.0 KHz \nStream size                    : 28.7 MiB (8%)\nLanguage                       : English\n\nSubtitle                       : Yes (English)\n &lt;a href=&quot;\nhttp://snapgr.am/images/2014/05/25/vlcsnap-2014-05-25-11h26m43s61.png&quot; rel=&quot;nofollow&quot; target=&quot;_NEW&quot;&gt;\nhttp://snapgr.am/images/2014/05/25/vlcsnap-2014-05-25-11h26m43s61.png&lt;/a&gt; &lt;a href=&quot;\nhttp://snapgr.am/images/2014/05/25/vlcsnap-2014-05-25-11h27m16s139.png&quot; rel=&quot;nofollow&quot; target=&quot;_NEW&quot;&gt;\nhttp://snapgr.am/images/2014/05/25/vlcsnap-2014-05-25-11h27m16s139.png&lt;/a&gt; &lt;a href=&quot;\nhttp://snapgr.am/images/2014/05/25/vlcsnap-2014-05-25-11h28m08s140.png&quot; rel=&quot;nofollow&quot; target=&quot;_NEW&quot;&gt;\nhttp://snapgr.am/images/2014/05/25/vlcsnap-2014-05-25-11h28m08s140.png&lt;/a&gt; &lt;a href=&quot;\nhttp://snapgr.am/images/2014/05/25/vlcsnap-2014-05-25-11h28m13s188.png&quot; rel=&quot;nofollow&quot; target=&quot;_NEW&quot;&gt;\nhttp://snapgr.am/images/2014/05/25/vlcsnap-2014-05-25-11h28m13s188.png&lt;/a&gt; &lt;a href=&quot;\nhttp://snapgr.am/images/2014/05/25/vlcsnap-2014-05-25-11h28m27s77.png&quot; rel=&quot;nofollow&quot; target=&quot;_NEW&quot;&gt;\nhttp://snapgr.am/images/2014/05/25/vlcsnap-2014-05-25-11h28m27s77.png&lt;/a&gt; &lt;a href=&quot;\nhttp://snapgr.am/images/2014/05/25/vlcsnap-2014-05-25-11h28m51s65.png&quot; rel=&quot;nofollow&quot; target=&quot;_NEW&quot;&gt;\nhttp://snapgr.am/images/2014/05/25/vlcsnap-2014-05-25-11h28m51s65.png&lt;/a&gt; &lt;a href=&quot;\nhttp://snapgr.am/images/2014/05/25/vlcsnap-2014-05-25-11h29m18s73.png&quot; rel=&quot;nofollow&quot; target=&quot;_NEW&quot;&gt;\nhttp://snapgr.am/images/2014/05/25/vlcsnap-2014-05-25-11h29m18s73.png&lt;/a&gt; &lt;a href=&quot;\nhttp://snapgr.am/images/2014/05/25/vlcsnap-2014-05-25-11h29m31s205.png&quot; rel=&quot;nofollow&quot; target=&quot;_NEW&quot;&gt;\nhttp://snapgr.am/images/2014/05/25/vlcsnap-2014-05-25-11h29m31s205.png&lt;/a&gt;\n\n----------------------------------------------------------------------------------------------------\n\n\nRecommend to you to use latest version of VLC player. Install K-Lite Codec Pack or shark007 codecs\nin case of any kind of problem in playback (For non-VLC Media Player users). Alternatively, install\nCore AVC codecs, the fastest decoder that there is coupled with Community Center Codec Pack and play\non Windows Media Player Classic. Check sample to be sure.\n\nEncoder Notes:Looking For Early Access To Anything You Can Provide DVDScr, R5, DVDR, BluRay, Direct\nAudio, Music Releases and Seedboxes. We require dedicated servers, so as to do more \nand fast releases of movies.\n\nEncode by VYTO @ P2PDL Torrent Sharing Community","torrent":{"xt":"urn:btih:fc2f245272abbda64e23cd69c16d34489e65b67d","amp;dn":"The.Lego.Movie.2014.WEBRip.480p.x264.AAC-VYTO+%5BP2PDL%5D","amp;tr":["udp%3A%2F%2Ftracker.openbittorrent.com%3A80","udp%3A%2F%2Fopen.demonii.com%3A1337","udp%3A%2F%2Ftracker.coppersurfer.tk%3A6969","udp%3A%2F%2Fexodus.desync.com%3A6969"],"infoHash":"fc2f245272abbda64e23cd69c16d34489e65b67d","infoHashBuffer":{"type":"Buffer","data":[252,47,36,82,114,171,189,166,78,35,205,105,193,109,52,72,158,101,182,125]},"announce":[],"urlList":[]}}